<?xml version="1.0" encoding="UTF-8"?>
<svg id="Capa_2" data-name="Capa 2" xmlns="http://www.w3.org/2000/svg" viewBox="0 0 77.71 67.71">
  <defs>
    <style>
      .cls-1 {
        fill: #999760;
      }

      .cls-2 {
        fill: #e1e0a7;
      }
    </style>
  </defs>
  <g id="OBJECTS">
    <g>
      <path class="cls-2" d="M61.39,0l-13.25,11.65s-10.39,4.74-8.67,7.14c1.72,2.41,8.79-1.91,8.79-1.91,0,0-9.82,6.99-8.1,9.01,1.72,2.02,10.99-3.91,10.99-3.91,0,0-11.95,8.83-9.88,11.05,2.06,2.22,13.79-6.61,13.79-6.61,0,0-8.59,7.22-6.42,9.32,2.18,2.1,17.88-11.11,17.88-11.11,.01,1.06-2.37,9.36,.91,9.2,3.29-.15,10.28-17.52,10.28-17.52"/>
      <g>
        <path class="cls-1" d="M48.29,14.96c-.07-.07-.17-.1-.27-.06-.14,.05-.21,.19-.16,.33,1.96,5.69,4.91,9.87,9.02,12.78,.12,.08,.28,.06,.36-.06,.08-.12,.06-.28-.06-.36-4.02-2.84-6.91-6.94-8.83-12.52-.01-.04-.03-.07-.06-.1Z"/>
        <path class="cls-1" d="M65.51,13.73s-.03-.03-.04-.04c-.12-.08-.28-.04-.36,.08-3.77,5.92,1.18,10.99,1.23,11.04h0c.1,.1,.26,.1,.37,0,.1-.1,.1-.26,0-.37-.19-.19-4.7-4.83-1.16-10.4,.07-.1,.05-.24-.04-.32Z"/>
      </g>
    </g>
    <g>
      <path class="cls-2" d="M10.83,30.82h0c6.26-6.18,13.65-13.11,14.88-11.92,2.18,2.1-5.28,12.33-5.28,12.33,0,0,12.53-7.37,14.59-5.15,1.03,1.11-2.2,4.02-5.13,6.14h0c.37,.25,.68,.62,.88,1.12,.64,1.57-.8,3.63-.8,3.63l-.46,.14c.92,.21,1.75,.88,2.25,2.22,1.31,3.54-3.16,5.94-3.16,5.94l-13.48,11.58L0,41.72l2.05-2.45c.62-4.76,4.48-8.11,8.78-8.45Z"/>
      <g>
        <path class="cls-1" d="M18.27,30.06c-.09-.09-.1-.23-.03-.33,.08-.12,.24-.14,.36-.06,1.68,1.19,3.2,2.64,4.51,4.28,.09,.11,.07,.27-.04,.36-.11,.09-.28,.07-.36-.04-1.28-1.61-2.76-3.02-4.4-4.18-.01,0-.02-.02-.03-.03Z"/>
        <path class="cls-1" d="M25.26,41.94c-.23-.23-.39-.53-.48-.9-.42-1.79,1.21-3.56,2.98-4.09,1.48-.44,3.37-.07,4.25,2.29,.05,.13-.02,.28-.15,.33-.13,.05-.28-.02-.33-.15-.64-1.73-1.99-2.47-3.61-1.98-1.52,.46-2.97,2-2.63,3.48,.09,.39,.29,.67,.59,.84,.8,.46,2.07,.08,2.08,.07,.14-.04,.28,.03,.32,.17,.04,.14-.03,.28-.17,.32-.06,.02-1.49,.45-2.49-.12-.13-.08-.25-.17-.36-.27Z"/>
        <path class="cls-1" d="M22.11,37.92c-.19-.19-.33-.42-.41-.72-.56-2.02,1.98-4.43,4.61-5.33,2.27-.78,4.03-.26,4.7,1.39,.05,.13,0,.28-.14,.34-.13,.05-.28,0-.34-.14-.8-1.96-3.1-1.42-4.05-1.09-2.36,.81-4.74,3.04-4.28,4.7,.46,1.64,3.91,.8,3.94,.79,.14-.03,.28,.05,.31,.19,.03,.14-.05,.28-.19,.31-.14,.03-2.99,.72-4.15-.44Z"/>
        <path class="cls-1" d="M14.3,47.72c-.08-.08-.1-.22-.04-.32,3.54-5.56-.6-9.84-.78-10.02-.1-.1-.1-.27,0-.37,.1-.1,.26-.1,.37,0h0s4.62,4.75,.85,10.67c-.08,.12-.24,.16-.36,.08-.02-.01-.03-.02-.04-.04Z"/>
        <path class="cls-1" d="M11.67,37.25c-.05-.05-.08-.13-.07-.21,.01-.14,.14-.25,.28-.23,1.59,.16,5.9,.27,6.72-1.16,.18-.32,.22-.63,.13-.96-.22-.76-1.18-1.61-2.85-2.53-1.53-.83-3.24-1.21-4.94-1.09-.14,0-.27-.1-.28-.24-.01-.14,.1-.27,.24-.28,1.8-.13,3.61,.27,5.22,1.15,1.83,1,2.84,1.93,3.1,2.84,.13,.46,.07,.92-.18,1.36-1.15,2.02-6.97,1.44-7.22,1.42-.06,0-.12-.03-.16-.07Z"/>
      </g>
    </g>
    <g>
      <path class="cls-2" d="M61.49,49.57c-.67-.7-1.33-1.02-1.92-1.06h0c-.07-.97-.46-2.5-1.17-3-1.46-1.03-3.23-.4-4.64,.86,0-1.03-.19-2.44-1.06-3.05-1.44-1-3.05-.27-4.33,1.13,0,0,0,0,0,0-2.55-2.05-6.73,1.37-7.7,4.11-.32,.09-.64,.2-.95,.32-4.4,1.76-8.24,6.72-6.58,11.52,1.66,4.8,5.55,7.31,5.55,7.31h17.3s4.6-8.48,4.6-8.48c.85-1.57,1.44-3.28,1.69-5.05,.24-1.69,.19-3.57-.81-4.62Z"/>
      <g>
        <path class="cls-1" d="M51.04,51.94c.34,.72,.83,1.16,1.47,1.3,1.58,.34,3.51-1.3,4.26-2.02,.1-.1,.11-.26,0-.37-.1-.1-.26-.11-.37,0-.54,.52-2.42,2.19-3.8,1.89-.52-.11-.9-.5-1.18-1.17-.64-1.58,1.22-4.27,2.44-5.33,.11-.09,.12-.26,.03-.37-.09-.11-.26-.12-.37-.03-1.24,1.08-3.35,4.02-2.58,5.92,.03,.06,.05,.13,.08,.19Z"/>
        <path class="cls-1" d="M45.85,48.76c.03,.07,.1,.13,.18,.14,.14,.03,.28-.06,.31-.2,.35-1.65,1.22-3.26,2.39-4.42,.1-.1,.1-.26,0-.37-.1-.1-.26-.1-.37,0-1.24,1.22-2.16,2.93-2.54,4.68-.01,.06,0,.11,.02,.16Z"/>
        <path class="cls-1" d="M46.79,52.23c.02,.05,.07,.1,.12,.12,1.73,.83,4.22-1.53,4.33-1.63,.1-.1,.11-.26,0-.37-.1-.1-.26-.11-.37,0-.65,.62-2.58,2.1-3.75,1.54-.13-.06-.28,0-.35,.12-.04,.07-.03,.15,0,.22Z"/>
        <path class="cls-1" d="M43.66,54.17c.03,.06,.08,.11,.15,.13,.24,.09,5.8,2.21,4.95,8.75-.02,.14,.08,.27,.22,.29,.14,.02,.27-.08,.29-.22,.9-6.96-5.23-9.28-5.29-9.3-.13-.05-.28,.02-.33,.15-.02,.07-.02,.14,0,.2Z"/>
        <path class="cls-1" d="M41.96,54.82c.06,.12,.19,.18,.32,.13,.13-.05,3.26-1.15,4.91-2.65,.63-.58,.98-1.15,1.02-1.7,.08-1.06-.61-1.8-2.06-2.21-.63-.18-1.43-.3-2.37-.35-1.49-.09-2.92,.15-4.26,.71-.13,.06-.19,.21-.14,.34,.05,.14,.21,.19,.34,.14,1.27-.53,2.62-.75,4.03-.67,.9,.06,1.66,.17,2.26,.34,1.2,.33,1.75,.88,1.69,1.67-.03,.42-.32,.87-.85,1.36-1.58,1.43-4.71,2.53-4.74,2.54-.14,.05-.21,.19-.16,.33,0,0,0,.02,.01,.02Z"/>
        <path class="cls-1" d="M56.51,54.25c.09,.19,.2,.38,.33,.55,.34,.43,.75,.65,1.22,.66,1.09,.02,2.08-1.15,2.12-1.2,.09-.11,.08-.27-.03-.36-.11-.09-.27-.08-.36,.03,0,.01-.88,1.03-1.72,1.01-.31,0-.58-.16-.82-.46-1.1-1.4-.46-4.18,.84-5.33,.94-.83,2.02-.68,3.12,.43,.1,.1,.26,.1,.37,0,.1-.1,.1-.26,0-.37-1.28-1.3-2.68-1.47-3.83-.46-1.32,1.16-2.04,3.78-1.24,5.49Z"/>
      </g>
    </g>
    <path class="cls-1" d="M10.22,28.57s-.08,0-.11-.01c-.31-.06-.51-.36-.44-.67C12.52,13.9,24.98,3.74,39.27,3.74c3.89,0,7.67,.73,11.25,2.16,.29,.12,.43,.45,.32,.74-.12,.29-.45,.43-.74,.32-3.44-1.38-7.08-2.08-10.82-2.08-13.76,0-25.75,9.77-28.5,23.23-.06,.27-.29,.45-.56,.45Z"/>
    <path class="cls-1" d="M63.69,51.39c-.11,0-.22-.03-.32-.1-.26-.18-.32-.53-.14-.79,3.16-4.57,4.93-9.92,5.12-15.48,.01-.31,.28-.56,.59-.55,.31,.01,.56,.27,.55,.59-.2,5.78-2.04,11.34-5.33,16.09-.11,.16-.29,.25-.47,.25Z"/>
    <path class="cls-1" d="M32.03,63.31s-.09,0-.14-.02c-4.82-1.21-9.31-3.63-13-7-.23-.21-.25-.57-.04-.8,.21-.23,.57-.25,.8-.04,3.55,3.24,7.87,5.57,12.51,6.73,.3,.08,.49,.39,.41,.69-.06,.26-.3,.43-.55,.43Z"/>
  </g>
</svg>