<svg width="140" height="140" viewBox="0 0 140 140" fill="#a6b127" xmlns="http://www.w3.org/2000/svg">
    <path d="M59.8354 103.344C59.7831 97.4974 54.3056 94.3595 49.2576 97.2797C49.1676 97.3319 49.066 97.3667 48.8774 97.4538C48.9528 97.419 47.5363 95.6396 47.3824 95.4886C46.8193 94.9342 46.172 94.4727 45.4521 94.1447C44.7264 93.8166 43.9455 93.6338 43.1531 93.5786C42.4767 93.5322 41.4898 94.0169 40.857 93.686C39.1472 92.7862 39.6755 90.2172 39.8497 88.6874C40.169 85.924 40.2561 83.0967 40.3722 80.3158C40.4854 77.6424 40.2125 75.0966 38.0819 73.204C36.1283 71.4682 33.2952 70.9718 30.9033 72.0429C29.1239 72.8412 27.716 75.0154 27.1645 76.8964C27.2922 76.4551 26.2327 74.4987 25.9744 74.159C25.4286 73.4479 24.7726 72.7628 24.0295 72.2606C22.4127 71.1634 20.3836 71.2708 18.5607 71.7265C15.4227 72.5103 13.3385 75.4914 13.5475 78.7193C13.9075 84.2839 14.311 89.8514 14.6448 95.419C14.697 96.2201 14.7551 97.0213 14.8306 97.8196C14.906 98.612 14.7348 99.0155 13.9249 99.3377C11.9249 100.133 10.6796 101.689 10.041 103.735C9.97712 103.933 9.88133 104.122 9.80005 104.313V116.917C10.3022 119.756 12.0294 121.866 13.9133 123.901C15.2166 125.309 16.4387 126.789 17.7218 128.217C18.5374 129.123 18.9525 130.151 18.9148 131.376C18.8887 132.278 18.8916 133.187 18.9177 134.09C18.9874 136.363 20.729 138.18 23.0077 138.191C30.9004 138.226 38.7931 138.226 46.6857 138.189C48.8309 138.18 50.5145 136.511 50.7032 134.368C50.7787 133.506 50.7845 132.63 50.7438 131.765C50.6713 130.287 51.3099 129.202 52.2475 128.081C53.0661 127.1 54.2011 126.461 55.0951 125.55C55.9108 124.72 56.5552 123.831 57.0545 122.891C58.0182 121.077 58.4014 119.109 58.5698 117.082C58.7381 115.053 59.3912 113.117 59.606 111.097C59.8818 108.513 59.8528 105.939 59.8354 103.344ZM39.0834 100.423C39.1298 98.3218 40.6276 96.8065 42.616 96.8007C44.5551 96.7949 46.1197 98.2521 46.1661 100.296C46.2358 103.37 46.2358 106.447 46.1661 109.521C46.1197 111.619 44.5348 113.062 42.5261 113.019C40.5899 112.978 39.1298 111.48 39.0834 109.431C39.0514 107.913 39.0775 106.391 39.0775 104.873C39.0775 103.355 39.0514 101.904 39.0834 100.423ZM17.655 91.8428L17.0686 84.4204V84.3739C16.999 82.3565 16.9177 80.0372 16.8306 78.9864C16.639 76.6757 17.9598 74.8934 20.0208 74.7396C22.2733 74.5712 23.7915 76.0691 23.9453 78.5161C24.3314 84.728 24.7494 90.94 25.1558 97.1519C25.1877 97.6512 25.2022 98.1505 25.2284 98.6875H18.1659C18.0759 97.4335 17.9888 96.2201 17.9046 95.0184L17.655 91.8428ZM53.6553 122.09C52.4942 123.332 51.3041 124.557 50.0559 125.707C48.23 127.39 47.4202 129.428 47.4782 131.898C47.5595 135.28 47.635 134.949 44.4448 134.949C37.5681 134.952 30.6914 134.952 23.8118 134.949C22.3546 134.949 22.1775 134.769 22.1688 133.338C22.1659 132.612 22.1659 131.889 22.1688 131.164C22.1775 129.274 21.5476 127.631 20.2907 126.212C18.4445 124.125 16.6303 122.011 14.7812 119.927C13.5969 118.589 13.0338 117.056 13.0512 115.268C13.0802 112.119 13.0483 108.969 13.0628 105.82C13.0715 103.535 14.4735 102.04 16.7464 101.994C19.2428 101.939 21.7421 101.939 24.2385 101.997C26.4359 102.046 28.076 103.706 28.0063 105.672C27.9308 107.733 26.3604 109.106 24.0643 109.12C23.4838 109.123 22.9061 109.12 22.3256 109.12C21.3473 109.12 20.3691 109.1 19.3938 109.126C18.2239 109.158 17.5244 109.814 17.5476 110.807C17.5708 111.776 18.2268 112.371 19.3676 112.371C21.3938 112.377 23.4199 112.322 25.449 112.342C25.9308 112.342 26.462 112.452 26.8858 112.673C30.4679 114.551 32.5724 117.489 33.0949 121.524C33.1501 121.953 33.1733 122.389 33.2197 122.821C33.3242 123.837 33.9948 124.502 34.8772 124.47C35.7568 124.438 36.5695 123.695 36.4273 122.725C36.1544 120.844 35.8787 118.92 35.2401 117.143C34.1805 114.197 32.0731 112 29.4026 110.304C30.8162 108.566 31.6842 106.632 31.0862 104.452C30.7378 103.178 29.8873 102.043 29.2835 100.833C29.06 100.383 28.7204 99.8893 28.7465 99.4335C29.0891 93.5815 29.4896 87.7324 29.8757 81.8833C29.9599 80.6206 30.0209 79.3521 30.1457 78.0923C30.3634 75.9152 31.9222 74.5857 34.0238 74.7396C35.9367 74.8789 37.3301 76.4842 37.2082 78.548C36.8308 85.0154 36.3402 91.477 36.0267 97.9473C35.8351 101.883 35.8206 105.831 35.8526 109.773C35.8758 112.429 37.2604 114.392 39.6059 115.564C41.9629 116.743 44.2997 116.516 46.5058 115.071C46.7467 114.914 46.9702 114.734 47.2779 114.508C49.3157 117.19 51.9253 118.072 55.1938 117.306C55.4406 119.187 54.8948 120.763 53.6553 122.09ZM56.561 110.841C56.4943 112.815 55.0167 114.281 53.1183 114.319C51.1531 114.36 49.5537 112.949 49.4956 110.923C49.4144 108.212 49.4144 105.495 49.4985 102.783C49.5566 100.812 51.1444 99.3871 53.037 99.3958C54.979 99.4045 56.5001 100.897 56.5639 102.917C56.6046 104.255 56.5726 105.596 56.5726 106.934C56.5726 108.238 56.6046 109.541 56.561 110.841Z"/>
    <path d="M129.562 114.557C129.248 107.767 129.333 100.949 129.533 94.151C129.692 88.7515 124.673 85.8095 120.773 87.6925C120.689 87.7331 120.564 87.6983 120.379 87.6983C120.379 85.9517 120.364 84.2196 120.382 82.4874C120.393 81.5038 120.193 80.558 119.825 79.6499C119.212 78.144 118.182 77.0966 116.697 76.2929C114.347 75.0221 112.118 75.7939 109.745 76.2552C109.922 76.2204 108.158 73.5221 107.932 73.2958C107.134 72.495 106.136 71.935 105.042 71.6449C103.605 71.2648 102.044 71.3199 100.655 71.8596C99.0792 72.4718 98.2116 73.6585 97.141 74.8858C95.5829 74.5289 94.08 73.9283 92.5625 73.8877C89.1504 73.7919 86.1793 76.5947 86.0342 80.0125C85.8863 83.5145 85.9588 87.0281 85.9733 90.5359C85.9762 91.2583 85.8341 91.6471 85.0739 91.975C82.332 93.1559 80.8435 95.3 80.7855 98.3087C80.6985 102.936 80.7391 107.564 80.7739 112.189C80.8029 116.205 80.8348 119.936 84.0729 122.808C85.3727 123.96 86.4201 125.411 87.5372 126.737C89.2026 128.712 90.0295 130.558 89.8903 133.192C89.7162 136.514 91.4542 138.13 94.7589 138.133C102.143 138.133 109.524 138.133 116.909 138.133C119.996 138.133 121.835 136.448 121.632 133.39C121.449 130.651 122.218 128.527 124.389 126.856C128.427 123.742 129.797 119.64 129.562 114.562V114.557ZM124.214 122.44C123.051 123.58 121.931 124.764 120.753 125.887C119.14 127.427 118.362 129.293 118.42 131.518C118.438 132.241 118.417 132.966 118.42 133.688C118.426 134.507 118.011 134.872 117.213 134.869C109.577 134.869 101.937 134.866 94.3005 134.869C93.4794 134.869 93.1138 134.446 93.108 133.659C93.1022 132.937 93.079 132.212 93.108 131.489C93.1921 129.316 92.4813 127.465 91.0102 125.855C89.3013 123.986 87.6939 122.025 85.982 120.153C84.6445 118.688 83.9916 117.037 84.009 115.038C84.0555 109.537 84.0032 104.036 84.0351 98.5322C84.0526 95.7613 86.4724 93.9944 88.869 94.9286C90.3023 95.4886 91.1234 96.7478 91.135 98.5409C91.1553 101.944 91.1408 105.345 91.1437 108.748C91.1437 110.997 91.4106 111.275 93.6738 111.426C99.2301 111.8 103.832 116.509 104.093 122.092C104.104 122.344 104.102 122.599 104.142 122.849C104.293 123.786 104.987 124.413 105.819 124.384C106.716 124.349 107.369 123.652 107.363 122.634C107.343 118.848 106.011 115.563 103.443 112.798C101.203 110.39 98.4496 108.881 95.1912 108.374C94.5181 108.269 94.3875 107.962 94.3933 107.367C94.4136 104.579 94.3701 101.793 94.4107 99.0051C94.463 95.5582 93.0616 93.0978 89.7858 91.7835C89.5218 91.6791 89.2462 91.2119 89.2432 90.9102C89.2055 87.5068 89.1881 84.1064 89.2317 80.7031C89.2607 78.5212 90.7897 77.0415 92.8498 77.0705C94.8315 77.0995 96.3083 78.6054 96.317 80.7437C96.346 87.1877 96.3286 93.6288 96.3286 100.073C96.3286 101.822 96.8538 102.612 97.994 102.597C99.0995 102.583 99.584 101.837 99.584 100.131C99.584 93.1443 99.584 86.1606 99.584 79.174C99.584 78.7388 99.5753 78.3036 99.6275 77.8742C99.8713 75.8548 101.429 74.5579 103.44 74.674C105.274 74.7813 106.69 76.261 106.701 78.2079C106.73 82.4062 106.71 86.6045 106.71 90.8028H106.716C106.716 94.8938 106.71 98.9819 106.724 103.073C106.724 103.537 106.669 104.149 106.925 104.425C107.343 104.872 107.975 105.295 108.558 105.365C109.295 105.449 109.812 104.869 109.934 104.097C109.994 103.708 109.971 103.302 109.971 102.905C109.971 96.1733 109.968 89.4392 109.977 82.7079C109.977 80.6508 111.051 79.1769 112.76 78.823C115.133 78.3297 117.109 79.9806 117.115 82.5106C117.129 89.532 117.12 96.5534 117.12 103.578C117.12 104.158 117.103 104.735 117.126 105.316C117.173 106.421 117.802 107.091 118.763 107.091C119.729 107.091 120.367 106.424 120.373 105.31C120.39 101.402 120.361 97.4906 120.387 93.5824C120.402 91.2932 122.314 89.857 124.313 90.5823C125.538 91.0262 126.225 92.1172 126.225 93.6781C126.231 98.6743 126.225 103.668 126.225 108.664C126.225 111.632 126.208 114.6 126.231 117.568C126.245 119.486 125.575 121.091 124.212 122.428L124.214 122.44Z"/>
    <path d="M41.1736 33.3951C41.1836 33.8398 41.1936 34.2845 41.1936 34.7226C41.1836 37.4378 40.9729 40.1531 41.1167 42.8683C41.3341 46.9412 42.15 50.3854 46.156 52.2412C46.4569 52.3817 46.7746 52.5121 46.9919 52.7629C47.333 53.1574 47.333 53.7259 47.3531 54.2476C47.4668 57.1868 48.7542 60.0258 51.446 61.4302C53.77 62.6441 56.6223 62.6173 58.9129 61.3433C59.4011 61.0724 59.8592 60.7481 60.2806 60.3802C60.5949 60.106 60.8825 59.8084 61.2436 59.464C65.9451 63.6439 71.73 62.0923 74.2981 57.3641C76.3145 58.7116 78.5282 59.2801 80.9191 58.6949C83.3233 58.1064 85.0521 56.615 86.2325 54.3612C86.1589 54.5017 88.406 55.448 88.6301 55.5182C89.4393 55.7791 90.2853 55.9195 91.138 55.9061C93.3918 55.866 95.6991 54.8495 97.1436 53.1039C98.4912 51.4755 98.645 49.1682 98.7086 47.1284C98.7821 44.7743 98.9259 42.4169 98.8524 40.0594C98.8189 38.9794 98.8457 37.7522 98.5514 36.7122C98.2571 35.6723 97.779 34.7828 97.595 33.7428C97.3543 32.3785 97.3576 30.9875 97.2339 29.6131C97.0165 27.1253 95.8194 24.9818 94.1876 23.1394C92.8902 21.6747 91.4724 20.3104 90.0479 18.9662C88.8708 17.856 88.3325 16.5419 88.4127 14.9435C88.4361 14.4854 88.3793 14.0239 88.4227 13.5691C88.7003 10.5596 87.4731 8.50316 84.6074 7.46655H55.5724C52.7066 8.50316 51.4326 10.563 51.7737 13.5658C52.078 16.2576 51.1551 18.371 49.2691 20.3071C47.7042 21.9155 46.273 23.6476 44.8284 25.3664C43.9925 26.3629 42.9859 27.2222 42.2269 28.2856C41.1501 29.7937 41.1435 31.6195 41.1802 33.4084L41.1736 33.3951ZM57.4115 57.8456C56.0137 58.7986 54.509 58.8521 53.0544 58.0094C51.1718 56.9193 50.8107 55.1504 51.0982 52.9802H59.1603C59.3944 54.9163 59.1503 56.6618 57.4115 57.8456ZM71.1616 54.057C71.1215 56.4779 69.2923 58.1933 67.0118 58.1465C64.758 58.1031 63.1028 56.401 62.9924 54.0369C62.9189 52.4519 63.0058 51.0709 64.2765 49.7366C66.2427 47.6768 67.0586 43.5237 63.8485 39.608C65.1794 38.0899 66.7142 37.6184 68.3627 38.1735C70.0681 38.7486 71.1415 40.1263 71.1649 42.049C71.2151 46.0517 71.2285 50.0543 71.1649 54.057H71.1616ZM83.1461 50.9605C83.0993 53.3815 81.3872 55.1337 79.0966 55.1604C76.8729 55.1838 75.0371 53.5085 74.9803 51.1578C74.8934 47.5765 74.89 43.9885 74.987 40.4072C75.0505 38.0498 76.8763 36.4413 79.1468 36.4781C81.3839 36.5149 83.0826 38.2337 83.1361 40.5844C83.1762 42.3333 83.1427 44.0855 83.1427 45.8343C83.1427 47.5431 83.1728 49.2518 83.1394 50.9605H83.1461ZM95.1273 39.0496C95.1607 40.551 95.1339 42.0524 95.1339 43.5538C95.1339 45.0552 95.1607 46.5566 95.1306 48.058C95.0838 50.3285 93.4453 52.0372 91.2383 52.1677C89.145 52.2914 87.1287 50.7632 87.015 48.573C86.8444 45.2491 86.8377 41.9019 87.0083 38.5781C87.1253 36.321 89.1116 34.8597 91.342 34.9901C93.452 35.1138 95.0771 36.8359 95.1239 39.0563L95.1273 39.0496ZM45.0324 33.2178C45.0391 31.4723 45.7212 29.9776 46.8548 28.6768C48.7441 26.5067 50.5599 24.2662 52.5595 22.1997C54.733 19.9526 55.6526 17.3745 55.5322 14.2714C55.4152 11.2151 55.5055 11.2117 58.5718 11.2117C66.6206 11.2117 74.6693 11.2117 82.7181 11.2117C84.487 11.2117 84.6442 11.3756 84.6542 13.1512C84.6575 13.9002 84.6508 14.6526 84.6542 15.4016C84.6776 17.7189 85.4768 19.7119 87.1354 21.3504C88.6468 22.8451 90.1616 24.3398 91.6396 25.8713C93.1343 27.4195 93.8064 29.2754 93.5891 31.4422C88.279 31.1814 87.1688 31.5793 84.4569 34.6724C79.2438 31.673 76.2075 32.0575 72.4724 36.1605C71.4224 35.5652 70.3825 34.9767 69.2656 34.3447C70.8238 31.7532 71.8337 28.9678 71.9073 25.9014C71.9173 25.5269 71.9374 25.1457 71.8671 24.7812C71.6832 23.8282 70.9877 23.2029 70.1183 23.35C69.4662 23.4604 68.8142 24.0756 68.3527 24.6274C68.0819 24.9484 68.1822 25.5871 68.132 26.082C67.7274 30.0478 66.0354 33.1342 62.7718 35.6555C60.9895 37.0332 59.4145 37.4211 57.358 37.2405C55.6626 37.0901 53.9405 37.1937 52.2318 37.2171C50.9578 37.2338 50.1519 37.9695 50.1419 39.0529C50.1318 40.1196 50.9544 40.9255 52.2017 40.9523C54.1178 40.9924 56.0372 40.9489 57.9565 40.9723C60.3407 40.9991 62.0628 42.5908 62.1966 44.8479C62.3237 46.9646 60.742 48.9742 58.4615 49.0913C55.1778 49.2585 51.874 49.2518 48.5903 49.0846C46.4669 48.9742 45.0491 47.2287 45.0324 45.102C44.999 41.1395 45.0157 37.177 45.0324 33.2178Z"/>
</svg>