<?xml version="1.0" encoding="UTF-8"?>
<svg id="OBJECTS" xmlns="http://www.w3.org/2000/svg" viewBox="0 0 180 180">
  <defs>
    <style>
      .cls-1 {
        fill: #999760;
      }

      .cls-2 {
        fill: #e1e0a7;
      }
    </style>
  </defs>
  <path class="cls-2" d="M132.65,153.29l3.82-59.28s13.46-36.01,3.64-37.65c-9.82-1.64-16.37,25.46-16.37,25.46,0,0,6.73-40.01-2.18-40.74-8.91-.73-16.87,35.47-16.87,35.47,0,0,7.41-49.47-2.78-49.84-10.19-.36-17.1,48.56-17.1,48.56,0,0,3.27-37.65-6.91-37.47-10.19,.18-16.11,69.03-16.11,69.03-2.56-2.49-16.63-27.93-24.09-19.74-7.46,8.19,17.23,66.18,17.23,66.18"/>
  <g>
    <path class="cls-1" d="M128.23,86.48c.32,0,.63-.18,.78-.49,.21-.43,.03-.95-.4-1.17-18.21-8.87-35.19-11.8-51.89-8.94-.47,.08-.79,.53-.71,1.01,.08,.47,.53,.8,1.01,.71,16.34-2.8,32.96,.08,50.84,8.79,.12,.06,.25,.09,.38,.09Z"/>
    <path class="cls-1" d="M90.15,130.4c.06,0,.13,0,.19-.02,.47-.1,.77-.57,.66-1.04-5.12-23.06-28.96-23.37-29.2-23.37h0c-.48,0-.87,.39-.87,.87,0,.48,.39,.87,.87,.87,.92,0,22.69,.32,27.5,22,.09,.41,.45,.68,.85,.68Z"/>
  </g>
</svg>