<?xml version="1.0" encoding="UTF-8"?>
<svg id="Capa_2" data-name="Capa 2" xmlns="http://www.w3.org/2000/svg" viewBox="0 0 123.16 145.17">
  <defs>
    <style>
      .cls-1 {
        fill: #999760;
      }

      .cls-2 {
        fill: #e1e0a7;
      }
    </style>
  </defs>
  <g id="OBJECTS">
    <g>
      <path class="cls-2" d="M110.5,145.17l4.38-67.98s15.44-41.3,4.17-43.18c-11.26-1.88-18.77,29.2-18.77,29.2,0,0,7.72-45.89-2.5-46.73-10.22-.83-19.34,40.68-19.34,40.68C78.43,57.16,86.93,.42,75.24,0c-11.68-.42-19.61,55.7-19.61,55.7,0,0,3.75-43.18-7.93-42.97-11.68,.21-18.48,79.17-18.48,79.17-2.93-2.86-19.07-32.03-27.62-22.64-8.55,9.39,19.76,75.91,19.76,75.91"/>
      <g>
        <path class="cls-1" d="M105.43,68.54c.37,0,.73-.21,.9-.56,.24-.5,.04-1.09-.46-1.34-20.89-10.18-40.36-13.53-59.52-10.25-.54,.09-.91,.61-.82,1.15,.09,.54,.6,.91,1.15,.82,18.74-3.21,37.8,.09,58.3,10.08,.14,.07,.29,.1,.44,.1Z"/>
        <path class="cls-1" d="M61.75,118.91c.07,0,.14,0,.22-.02,.54-.12,.88-.65,.76-1.19-5.88-26.44-33.22-26.8-33.49-26.8h0c-.55,0-1,.45-1,1,0,.55,.44,1,1,1,1.06,0,26.02,.37,31.54,25.23,.1,.47,.52,.78,.98,.78Z"/>
      </g>
    </g>
  </g>
</svg>