<?xml version="1.0" encoding="UTF-8"?>
<svg id="OBJECTS" xmlns="http://www.w3.org/2000/svg" viewBox="0 0 180 180">
  <defs>
    <style>
      .cls-1 {
        fill: #999760;
      }

      .cls-2 {
        fill: #e1e0a7;
      }
    </style>
  </defs>
  <path class="cls-2" d="M143.68,67.93c-2.6-2.72-5.12-3.94-7.43-4.08h0c-.27-3.75-1.76-9.65-4.51-11.59-5.64-3.99-12.47-1.54-17.91,3.32-.02-3.97-.72-9.42-4.07-11.76-5.57-3.88-11.78-1.05-16.72,4.36,0,0,0,0,0,0-9.85-7.9-25.99,5.3-29.73,15.86-1.25,.35-2.47,.76-3.66,1.24-16.99,6.81-31.82,25.94-25.4,44.49,6.42,18.55,21.45,28.21,21.45,28.21l66.81-.03,17.77-32.7c3.3-6.06,5.57-12.65,6.53-19.48,.91-6.53,.75-13.78-3.13-17.83Z"/>
  <g>
    <path class="cls-1" d="M103.31,77.08c1.31,2.8,3.21,4.48,5.67,5.01,6.09,1.31,13.54-5.03,16.46-7.81,.4-.38,.41-1.01,.03-1.41-.38-.4-1.01-.41-1.41-.03-2.1,2-9.36,8.44-14.66,7.3-2-.43-3.49-1.92-4.55-4.53-2.48-6.11,4.71-16.5,9.42-20.59,.42-.36,.46-.99,.1-1.41-.36-.42-.99-.46-1.41-.1-4.81,4.17-12.94,15.52-9.97,22.85,.1,.25,.21,.49,.32,.73Z"/>
    <path class="cls-1" d="M83.28,64.81c.13,.27,.38,.49,.7,.56,.54,.11,1.07-.23,1.19-.77,1.35-6.39,4.72-12.61,9.24-17.07,.39-.39,.4-1.02,0-1.41-.39-.39-1.02-.4-1.41,0-4.79,4.73-8.36,11.32-9.79,18.08-.05,.22-.02,.44,.07,.63Z"/>
    <path class="cls-1" d="M86.9,78.2c.09,.2,.26,.37,.47,.48,6.66,3.2,16.31-5.92,16.72-6.31,.4-.38,.41-1.01,.03-1.41-.38-.4-1.01-.41-1.41-.03-2.5,2.39-9.97,8.11-14.47,5.95-.5-.24-1.1-.03-1.33,.47-.14,.28-.13,.6,0,.86Z"/>
    <path class="cls-1" d="M74.79,85.68c.11,.23,.3,.42,.56,.52,.92,.34,22.4,8.52,19.13,33.77-.07,.55,.32,1.05,.86,1.12,.55,.07,1.05-.32,1.12-.86,3.48-26.86-20.19-35.82-20.43-35.91-.52-.19-1.09,.08-1.28,.6-.09,.26-.07,.53,.03,.77Z"/>
    <path class="cls-1" d="M68.26,88.21c.21,.46,.75,.69,1.23,.52,.51-.18,12.59-4.43,18.98-10.22,2.45-2.22,3.78-4.43,3.95-6.56,.32-4.09-2.36-6.96-7.97-8.53-2.44-.68-5.51-1.14-9.13-1.36-5.74-.35-11.28,.56-16.46,2.72-.51,.21-.75,.8-.54,1.31,.18,.54,.8,.75,1.31,.54,4.89-2.04,10.13-2.91,15.56-2.57,3.48,.22,6.42,.65,8.72,1.29,4.62,1.29,6.75,3.4,6.51,6.45-.13,1.61-1.24,3.37-3.3,5.23-6.09,5.51-18.18,9.77-18.3,9.81-.52,.18-.8,.75-.61,1.27,.01,.03,.02,.06,.04,.09Z"/>
    <path class="cls-1" d="M124.45,86c.35,.75,.78,1.46,1.29,2.11,1.31,1.66,2.9,2.52,4.73,2.55,4.2,.07,8.03-4.43,8.19-4.63,.35-.42,.3-1.05-.12-1.41-.42-.36-1.05-.3-1.41,.12-.03,.04-3.38,3.97-6.63,3.91-1.21-.02-2.25-.61-3.18-1.79-4.24-5.39-1.77-16.16,3.25-20.58,3.64-3.21,7.8-2.63,12.04,1.68,.39,.39,1.02,.4,1.41,.01,.4-.39,.4-1.02,.01-1.41-4.96-5.04-10.34-5.68-14.78-1.77-5.1,4.5-7.87,14.61-4.78,21.21Z"/>
  </g>
</svg>