<?xml version="1.0" encoding="UTF-8"?>
<svg id="OBJECTS" xmlns="http://www.w3.org/2000/svg" viewBox="0 0 180 180">
  <defs>
    <style>
      .cls-1 {
        fill: #999760;
      }

      .cls-2 {
        fill: #e1e0a7;
      }
    </style>
  </defs>
  <path class="cls-2" d="M51.59,99.39h-.02c.21-32.41,1.41-69.76,7.74-69.87,11.16-.2,18.39,45.94,18.39,45.94,0,0,13.46-51.89,24.62-51.49,5.58,.2,4.75,16.22,2.64,29.39h0c1.63-.31,3.38-.14,5.22,.63,5.76,2.42,7.37,11.54,7.37,11.54l-.83,1.55c2.93-1.85,6.86-2.29,11.66-.09,12.65,5.8,7.25,23.71,7.25,23.71l-4.94,65.35H51.76l-1.05-11.72c-10.79-14.03-9.45-32.82,.87-44.94Z"/>
  <g>
    <path class="cls-1" d="M69,78.01c-.46,0-.86-.33-.94-.79-.09-.52,.26-1.01,.78-1.1,7.5-1.28,15.22-1.48,22.94-.59,.52,.06,.9,.53,.84,1.06-.06,.52-.54,.9-1.06,.84-7.54-.87-15.07-.67-22.4,.58-.05,0-.11,.01-.16,.01Z"/>
    <path class="cls-1" d="M118.22,90.74c-1.22,0-2.42-.37-3.6-1.1-5.74-3.57-6.13-12.42-2.9-18.44,2.69-5.01,8.59-8.98,17.06-5.09,.48,.22,.69,.79,.47,1.27-.22,.48-.78,.69-1.27,.47-6.18-2.83-11.63-1.24-14.58,4.26-2.77,5.15-2.54,12.96,2.22,15.91,1.26,.78,2.48,.99,3.74,.65,3.29-.89,5.59-5.18,5.61-5.23,.25-.47,.82-.65,1.29-.4,.47,.25,.65,.82,.4,1.29-.11,.21-2.72,5.07-6.8,6.18-.55,.15-1.1,.22-1.65,.22Z"/>
    <path class="cls-1" d="M99.53,88.46c-.98,0-1.97-.24-2.95-.79-6.73-3.79-6.4-16.71-1.89-25.93,3.89-7.95,9.82-11.18,15.87-8.64,.49,.2,.72,.76,.51,1.25-.2,.49-.76,.72-1.25,.51-7.22-3.02-11.79,4.39-13.41,7.72-4.04,8.27-4.44,20.3,1.11,23.43,5.47,3.08,12.28-8.09,12.35-8.21,.27-.45,.86-.6,1.31-.33,.45,.27,.6,.86,.33,1.31-.27,.45-5.9,9.68-11.97,9.68Z"/>
    <path class="cls-1" d="M104.69,134.4c-.44,0-.83-.3-.93-.75-5.28-23.74-27.23-24.1-28.17-24.1-.53,0-.95-.43-.95-.96,0-.53,.43-.95,.95-.95h0c.24,0,24.41,.34,30.03,25.6,.11,.51-.21,1.03-.73,1.14-.07,.01-.14,.02-.21,.02Z"/>
    <path class="cls-1" d="M70.55,113.95c-.28,0-.55-.12-.74-.35-.33-.41-.27-1.01,.14-1.34,4.58-3.72,16.1-14.67,14.49-20.54-.36-1.29-1.06-2.22-2.16-2.83-2.56-1.43-7.28-1.14-14.03,.84-6.16,1.81-11.6,5.28-15.73,10.03-.35,.4-.95,.44-1.35,.09-.4-.35-.44-.95-.09-1.35,4.37-5.03,10.12-8.7,16.63-10.61,7.36-2.17,12.43-2.39,15.5-.68,1.55,.86,2.58,2.21,3.07,4,2.27,8.26-14.41,21.94-15.13,22.52-.18,.14-.39,.21-.6,.21Z"/>
  </g>
</svg>