<?xml version="1.0" encoding="UTF-8"?>
<svg id="Capa_2" data-name="Capa 2" xmlns="http://www.w3.org/2000/svg" viewBox="0 0 97.99 138.3">
  <defs>
    <style>
      .cls-1 {
        fill: #999760;
      }

      .cls-2 {
        fill: #e1e0a7;
      }
    </style>
  </defs>
  <g id="OBJECTS">
    <g>
      <path class="cls-2" d="M8.77,78.98h-.02c.22-33.94,1.48-73.04,8.11-73.16,11.68-.21,19.26,48.1,19.26,48.1C36.12,53.91,50.22-.41,61.9,0c5.84,.21,4.97,16.98,2.77,30.77h0c1.71-.32,3.54-.15,5.47,.66,6.03,2.53,7.72,12.08,7.72,12.08l-.87,1.62c3.07-1.94,7.18-2.4,12.21-.09,13.25,6.07,7.6,24.83,7.6,24.83l-5.18,68.43H8.96l-1.1-12.27c-11.3-14.69-9.9-34.36,.91-47.05Z"/>
      <g>
        <path class="cls-1" d="M27,56.59c-.48,0-.9-.34-.98-.83-.09-.54,.27-1.06,.82-1.15,7.86-1.34,15.94-1.55,24.02-.62,.55,.06,.94,.56,.88,1.11-.06,.55-.57,.94-1.11,.88-7.89-.91-15.78-.71-23.45,.6-.06,0-.11,.01-.17,.01Z"/>
        <path class="cls-1" d="M78.55,69.92c-1.27,0-2.54-.38-3.77-1.15-6.01-3.74-6.42-13-3.03-19.31,2.82-5.25,8.99-9.4,17.87-5.33,.5,.23,.72,.82,.49,1.33-.23,.5-.82,.72-1.33,.49-6.47-2.96-12.18-1.3-15.27,4.46-2.9,5.4-2.66,13.57,2.33,16.66,1.31,.82,2.6,1.04,3.92,.68,3.44-.93,5.85-5.43,5.87-5.47,.26-.49,.86-.68,1.35-.42,.49,.26,.68,.86,.42,1.35-.11,.22-2.85,5.31-7.12,6.47-.58,.16-1.16,.23-1.73,.23Z"/>
        <path class="cls-1" d="M58.97,67.54c-1.02,0-2.06-.25-3.08-.83-7.05-3.97-6.7-17.49-1.98-27.15,4.07-8.32,10.28-11.71,16.62-9.05,.51,.21,.75,.8,.54,1.31-.21,.51-.8,.75-1.31,.54-7.56-3.16-12.34,4.6-14.04,8.08-4.23,8.66-4.65,21.26,1.16,24.53,5.73,3.22,12.86-8.47,12.93-8.59,.29-.47,.9-.63,1.37-.34,.47,.28,.63,.9,.34,1.37-.29,.48-6.18,10.13-12.54,10.13Z"/>
        <path class="cls-1" d="M64.38,115.64c-.46,0-.87-.32-.98-.78-5.52-24.86-28.52-25.23-29.49-25.23-.55,0-1-.45-1-1,0-.55,.45-1,1-1h0c.25,0,25.56,.36,31.44,26.8,.12,.54-.22,1.07-.76,1.19-.07,.02-.15,.02-.22,.02Z"/>
        <path class="cls-1" d="M28.63,94.22c-.29,0-.58-.13-.78-.37-.35-.43-.28-1.06,.14-1.41,4.79-3.9,16.86-15.36,15.17-21.5-.37-1.35-1.11-2.32-2.26-2.97-2.68-1.49-7.62-1.2-14.69,.88-6.45,1.9-12.15,5.53-16.47,10.51-.36,.42-.99,.46-1.41,.1-.42-.36-.46-.99-.1-1.41,4.57-5.26,10.6-9.11,17.41-11.11,7.71-2.27,13.02-2.5,16.23-.71,1.62,.9,2.7,2.31,3.22,4.18,2.38,8.64-15.09,22.98-15.84,23.58-.18,.15-.41,.22-.63,.22Z"/>
      </g>
    </g>
  </g>
</svg>